<svg width="34" height="34" viewBox="0 0 34 34" fill="none" xmlns="http://www.w3.org/2000/svg">
<path fill-rule="evenodd" clip-rule="evenodd" d="M17.1299 20.2488L16.8891 17.9628L14.6243 17.9195C14.2974 18.5699 13.7782 19.6686 13.4439 20.6873C13.2726 21.209 13.1686 21.6546 13.1447 21.9827C13.141 22.0335 13.1395 22.0766 13.1394 22.1129C13.1753 22.1097 13.2178 22.1044 13.2678 22.0962C13.5881 22.0436 14.0167 21.8998 14.5141 21.6816C15.4854 21.2555 16.5192 20.6356 17.1299 20.2488ZM17.7866 16.9679L14.6288 16.9076C14.2596 16.9005 13.9181 17.0991 13.7499 17.4329C13.0851 18.7525 11.5255 22.1071 12.4057 22.9257C13.2858 23.7442 16.4437 21.878 17.6824 21.0915C17.996 20.8924 18.1615 20.529 18.1222 20.1555L17.7866 16.9679Z" fill="#F5F8FA"/>
<path fill-rule="evenodd" clip-rule="evenodd" d="M29.2306 4.26438C28.96 4.01271 28.5398 4.03138 28.292 4.30607C28.0442 4.58076 28.0627 5.00746 28.3333 5.25913C28.6039 5.5108 29.0242 5.49213 29.2719 5.21744C29.5197 4.94275 29.5012 4.51605 29.2306 4.26438ZM29.9036 3.51832C29.2271 2.88915 28.1765 2.93581 27.5571 3.62254C26.9376 4.30927 26.9838 5.37602 27.6603 6.00519C28.3368 6.63436 29.3874 6.5877 30.0069 5.90097C30.6263 5.21424 30.5801 4.14749 29.9036 3.51832Z" fill="#F5F8FA"/>
<path d="M17.9298 20.2887C17.5581 20.7008 16.9278 20.7288 16.5219 20.3513L14.562 18.5285C14.1561 18.151 14.1284 17.511 14.5001 17.0989L25.8746 4.48913C26.2463 4.07709 26.8766 4.04909 27.2825 4.4266L29.2424 6.24934C29.6483 6.62685 29.676 7.2669 29.3044 7.67894L17.9298 20.2887Z" fill="#343636"/>
<path fill-rule="evenodd" clip-rule="evenodd" d="M15.235 17.7825L17.1949 19.6052L28.5694 6.99541L26.6095 5.17266L15.235 17.7825ZM16.5219 20.3513C16.9278 20.7288 17.5581 20.7008 17.9298 20.2887L29.3044 7.67894C29.676 7.2669 29.6483 6.62685 29.2424 6.24934L27.2825 4.4266C26.8766 4.04909 26.2463 4.07709 25.8746 4.48913L14.5001 17.0989C14.1284 17.511 14.1561 18.151 14.562 18.5285L16.5219 20.3513Z" fill="#F5F8FA"/>
<path d="M19.4018 16.1596C19.154 16.4343 18.7338 16.453 18.4632 16.2013C18.1926 15.9496 18.1741 15.5229 18.4218 15.2482L20.2165 13.2587C20.4642 12.984 20.8845 12.9654 21.1551 13.217C21.4257 13.4687 21.4442 13.8954 21.1964 14.1701L19.4018 16.1596Z" fill="#F5F8FA"/>
<path d="M12.427 23.3924C12.3031 23.5298 12.093 23.5391 11.9577 23.4133C11.8224 23.2874 11.8131 23.0741 11.937 22.9367L12.3856 22.4394C12.5095 22.302 12.7197 22.2927 12.855 22.4185C12.9903 22.5444 12.9995 22.7577 12.8756 22.8951L12.427 23.3924Z" fill="#F5F8FA"/>
<path fill-rule="evenodd" clip-rule="evenodd" d="M1.04407 6.11573L1.2843 32.9793L22.2103 32.7921L22.0698 17.0814L23.0566 15.9875L23.2068 32.7832C23.2118 33.342 22.7697 33.799 22.2194 33.8039L1.29335 33.9911C0.743013 33.996 0.292824 33.547 0.287827 32.9882L0.0475884 6.12464C0.0425911 5.56584 0.484678 5.10885 1.03502 5.10393L21.961 4.91679C22.5114 4.91187 22.9616 5.36088 22.9666 5.91968L22.9686 6.14662L21.9818 7.24055L21.9701 5.92859L1.04407 6.11573ZM20.3324 8.52642L20.3372 9.06378L19.3504 10.1577L19.3359 8.53533L3.72444 8.67494L3.87221 25.1984L19.4837 25.0588L19.4384 19.9986L20.4252 18.9046L20.4802 25.0499L20.4892 26.0617L19.4927 26.0706L3.88125 26.2102L2.88478 26.2191L2.87573 25.2073L2.72796 8.68385L2.71891 7.67205L3.71539 7.66314L19.3269 7.52353L20.3233 7.51461L20.3324 8.52642ZM11.536 27.8282C12.4532 27.82 13.2035 28.5683 13.2119 29.4997C13.2202 30.431 12.4834 31.1927 11.5662 31.2009C10.6489 31.2091 9.89861 30.4607 9.89028 29.5294C9.88195 28.598 10.6188 27.8364 11.536 27.8282ZM11.5269 26.8164C12.9945 26.8033 14.195 28.0006 14.2083 29.4908C14.2217 30.9809 13.0428 32.1995 11.5752 32.2127C10.1076 32.2258 8.90713 31.0284 8.8938 29.5383C8.88047 28.0482 10.0594 26.8295 11.5269 26.8164Z" fill="#F5F8FA"/>
</svg>
